<svg width="33" height="32" viewBox="0 0 33 32" fill="none" xmlns="http://www.w3.org/2000/svg">
<path d="M25.8333 5.33337H7.16667C6.1058 5.33337 5.08839 5.7548 4.33824 6.50495C3.5881 7.25509 3.16667 8.27251 3.16667 9.33337V22.6667C3.16667 23.7276 3.5881 24.745 4.33824 25.4951C5.08839 26.2453 6.1058 26.6667 7.16667 26.6667H25.8333C26.8942 26.6667 27.9116 26.2453 28.6618 25.4951C29.4119 24.745 29.8333 23.7276 29.8333 22.6667V9.33337C29.8333 8.27251 29.4119 7.25509 28.6618 6.50495C27.9116 5.7548 26.8942 5.33337 25.8333 5.33337ZM25.2867 8.00004L17.4467 15.84C17.3227 15.965 17.1753 16.0642 17.0128 16.1319C16.8503 16.1996 16.676 16.2344 16.5 16.2344C16.324 16.2344 16.1497 16.1996 15.9872 16.1319C15.8248 16.0642 15.6773 15.965 15.5533 15.84L7.71333 8.00004H25.2867ZM27.1667 22.6667C27.1667 23.0203 27.0262 23.3595 26.7761 23.6095C26.5261 23.8596 26.187 24 25.8333 24H7.16667C6.81305 24 6.47391 23.8596 6.22386 23.6095C5.97381 23.3595 5.83333 23.0203 5.83333 22.6667V9.88004L13.6733 17.72C14.4233 18.4691 15.44 18.8899 16.5 18.8899C17.56 18.8899 18.5767 18.4691 19.3267 17.72L27.1667 9.88004V22.6667Z" fill="#4B5563"/>
</svg>
