<svg width="65" height="64" viewBox="0 0 65 64" fill="none" xmlns="http://www.w3.org/2000/svg">
<g clip-path="url(#clip0_41_2325)">
<path d="M61.5 0H3.5C1.84315 0 0.5 1.34315 0.5 3V61C0.5 62.6569 1.84315 64 3.5 64H61.5C63.1569 64 64.5 62.6569 64.5 61V3C64.5 1.34315 63.1569 0 61.5 0Z" fill="#3178C6"/>
<path fill-rule="evenodd" clip-rule="evenodd" d="M37.6311 49.734V56.747C38.7673 57.331 40.111 57.7695 41.6623 58.0615C43.2137 58.354 44.8488 58.5 46.5676 58.5C48.2428 58.5 49.8341 58.3395 51.3415 58.018C52.8495 57.6965 54.171 57.167 55.3075 56.429C56.4435 55.691 57.343 54.727 58.006 53.536C58.6685 52.3455 59 50.8735 59 49.1203C59 47.8493 58.8105 46.7353 58.432 45.7783C58.053 44.8214 57.507 43.9704 56.793 43.2252C56.0795 42.4801 55.2235 41.8117 54.226 41.22C53.228 40.6283 52.103 40.0694 50.85 39.5435C49.9324 39.1636 49.1094 38.7947 48.3811 38.4368C47.6527 38.0788 47.0337 37.7136 46.5239 37.341C46.014 36.9684 45.6208 36.574 45.344 36.1576C45.0673 35.7413 44.9288 35.27 44.9288 34.7441C44.9288 34.2619 45.0527 33.8273 45.3003 33.4402C45.548 33.053 45.8975 32.7206 46.3491 32.443C46.8006 32.1655 47.3542 31.95 48.0097 31.7966C48.6651 31.6431 49.3934 31.5664 50.1946 31.5664C50.7775 31.5664 51.3925 31.6103 52.041 31.6979C52.689 31.7856 53.341 31.9207 53.9965 32.1034C54.652 32.286 55.289 32.5161 55.9085 32.7937C56.5275 33.0713 57.099 33.3927 57.6235 33.7579V27.2054C56.56 26.7963 55.3985 26.4931 54.1385 26.2959C52.8785 26.0986 51.433 26 49.8013 26C48.1408 26 46.5676 26.1789 45.0818 26.5369C43.5961 26.8948 42.2887 27.4537 41.1598 28.2134C40.0309 28.9731 39.1387 29.941 38.4832 31.1171C37.8277 32.2932 37.5 33.6995 37.5 35.3358C37.5 37.4251 38.1009 39.2074 39.3026 40.683C40.5044 42.1587 42.3288 43.4079 44.7759 44.4305C45.7373 44.825 46.6332 45.2122 47.4634 45.592C48.2937 45.9719 49.0111 46.3664 49.6156 46.7755C50.2201 47.1846 50.697 47.6302 51.0465 48.1123C51.3965 48.5944 51.571 49.1423 51.571 49.7559C51.571 50.209 51.462 50.629 51.2435 51.016C51.025 51.403 50.6935 51.739 50.2492 52.024C49.8049 52.309 49.2514 52.532 48.5886 52.6925C47.9259 52.853 47.1502 52.9335 46.2617 52.9335C44.7467 52.9335 43.2465 52.667 41.7607 52.1335C40.2749 51.6005 38.8984 50.8005 37.6311 49.734ZM25.8513 32.2772H35V26.5H9.5V32.2772H18.604V58H25.8513V32.2772Z" fill="white"/>
</g>
<defs>
<clipPath id="clip0_41_2325">
<rect width="64" height="64" fill="white" transform="translate(0.5)"/>
</clipPath>
</defs>
</svg>
