<svg width="70" height="64" viewBox="0 0 70 64" fill="none" xmlns="http://www.w3.org/2000/svg">
<g clip-path="url(#clip0_41_2330)">
<path d="M35 38.7725C38.6723 38.7725 41.6494 35.7404 41.6494 32C41.6494 28.2597 38.6723 25.2275 35 25.2275C31.3277 25.2275 28.3506 28.2597 28.3506 32C28.3506 35.7404 31.3277 38.7725 35 38.7725Z" fill="#087EA4"/>
<path d="M35 47.2379C53.3617 47.2379 68.2468 40.4156 68.2468 31.9998C68.2468 23.584 53.3617 16.7617 35 16.7617C16.6383 16.7617 1.75325 23.584 1.75325 31.9998C1.75325 40.4156 16.6383 47.2379 35 47.2379Z" stroke="#087EA4" stroke-width="3"/>
<path d="M22.0433 39.619C31.2242 55.8152 44.4676 65.5336 51.6234 61.3257C58.7791 57.1178 57.1375 40.5771 47.9566 24.3809C38.7758 8.18475 25.5324 -1.53366 18.3766 2.67422C11.2209 6.88211 12.8625 23.4228 22.0433 39.619Z" stroke="#087EA4" stroke-width="3"/>
<path d="M22.0434 24.3811C12.8625 40.5772 11.2209 57.118 18.3766 61.3259C25.5324 65.5337 38.7758 55.8153 47.9566 39.6192C57.1375 23.423 58.7791 6.88229 51.6234 2.67441C44.4676 -1.53348 31.2242 8.18494 22.0434 24.3811Z" stroke="#087EA4" stroke-width="3"/>
</g>
<defs>
<clipPath id="clip0_41_2330">
<rect width="69.8182" height="64" fill="white" transform="translate(0.0909119)"/>
</clipPath>
</defs>
</svg>
