<svg width="129" height="36" viewBox="0 0 129 36" fill="none" xmlns="http://www.w3.org/2000/svg">
<g id="Logo">
<g id="Vector">
<path d="M19.7276 7.25882H15.9154C15.8458 6.76561 15.7037 6.32753 15.489 5.94457C15.2743 5.55581 14.9987 5.22507 14.6621 4.95236C14.3256 4.67965 13.9368 4.47076 13.4958 4.3257C13.0607 4.18064 12.5878 4.10811 12.0771 4.10811C11.1546 4.10811 10.3509 4.33731 9.66624 4.7957C8.98156 5.24828 8.45064 5.90976 8.07348 6.78012C7.69632 7.64468 7.50774 8.69492 7.50774 9.93083C7.50774 11.2016 7.69632 12.2692 8.07348 13.1338C8.45644 13.9983 8.99026 14.6511 9.67494 15.0921C10.3596 15.5331 11.1517 15.7536 12.051 15.7536C12.5558 15.7536 13.0229 15.6868 13.4523 15.5534C13.8875 15.4199 14.2734 15.2255 14.6099 14.9702C14.9464 14.7091 15.225 14.3929 15.4454 14.0215C15.6717 13.6502 15.8284 13.2266 15.9154 12.7508L19.7276 12.7682C19.629 13.5864 19.3824 14.3755 18.9878 15.1356C18.5991 15.8899 18.0739 16.5659 17.4125 17.1635C16.7568 17.7554 15.9735 18.2254 15.0625 18.5735C14.1573 18.9159 13.1332 19.087 11.9901 19.087C10.4002 19.087 8.97865 18.7273 7.72533 18.0078C6.47782 17.2883 5.49141 16.2468 4.7661 14.8832C4.0466 13.5196 3.68685 11.8688 3.68685 9.93083C3.68685 7.98702 4.05241 6.33334 4.78351 4.96977C5.51461 3.6062 6.50683 2.56757 7.76015 1.85387C9.01347 1.13437 10.4235 0.774622 11.9901 0.774622C13.0229 0.774622 13.9803 0.919683 14.8623 1.2098C15.7501 1.49992 16.5363 1.9235 17.221 2.48053C17.9057 3.03176 18.4627 3.70774 18.8921 4.50848C19.3273 5.30921 19.6058 6.22599 19.7276 7.25882Z" fill="#111827"/>
<path d="M25.6825 19.0957C24.8295 19.0957 24.0694 18.9478 23.4021 18.6519C22.7348 18.3501 22.2068 17.9062 21.8181 17.3202C21.4351 16.7284 21.2436 15.9915 21.2436 15.1095C21.2436 14.3668 21.38 13.743 21.6527 13.2382C21.9254 12.7334 22.2968 12.3272 22.7668 12.0197C23.2368 11.7122 23.7706 11.4801 24.3682 11.3234C24.9717 11.1667 25.6041 11.0565 26.2656 10.9927C27.0431 10.9114 27.6698 10.836 28.1456 10.7664C28.6214 10.6909 28.9666 10.5807 29.1813 10.4356C29.396 10.2906 29.5034 10.0759 29.5034 9.79157V9.73935C29.5034 9.18812 29.3293 8.76165 28.9811 8.45992C28.6388 8.15819 28.1514 8.00733 27.5189 8.00733C26.8517 8.00733 26.3207 8.15529 25.9262 8.45122C25.5316 8.74134 25.2705 9.10689 25.1428 9.54787L21.7136 9.26936C21.8877 8.45702 22.23 7.75493 22.7406 7.16308C23.2513 6.56543 23.9098 6.10704 24.7164 5.78791C25.5287 5.46297 26.4687 5.30051 27.5363 5.30051C28.2791 5.30051 28.9898 5.38754 29.6687 5.56161C30.3534 5.73569 30.9598 6.0055 31.4878 6.37105C32.0216 6.7366 32.4423 7.2066 32.7498 7.78104C33.0573 8.34967 33.2111 9.03146 33.2111 9.82639V18.8433H29.6948V16.9895H29.5904C29.3757 17.4072 29.0885 17.7757 28.7287 18.0948C28.369 18.4082 27.9367 18.6548 27.4319 18.8346C26.9271 19.0087 26.3439 19.0957 25.6825 19.0957ZM26.7443 16.5369C27.2897 16.5369 27.7713 16.4295 28.1891 16.2148C28.6069 15.9944 28.9347 15.6984 29.1726 15.3271C29.4105 14.9557 29.5295 14.535 29.5295 14.0651V12.6464C29.4134 12.7218 29.2539 12.7914 29.0508 12.8552C28.8535 12.9133 28.6301 12.9684 28.3806 13.0206C28.1311 13.067 27.8816 13.1106 27.6321 13.1512C27.3826 13.186 27.1563 13.2179 26.9532 13.2469C26.518 13.3107 26.138 13.4123 25.813 13.5515C25.4881 13.6908 25.2357 13.8794 25.0558 14.1173C24.8759 14.3494 24.786 14.6395 24.786 14.9876C24.786 15.4924 24.9688 15.8783 25.3343 16.1452C25.7057 16.4063 26.1757 16.5369 26.7443 16.5369Z" fill="#111827"/>
<path d="M35.5975 23.8566V5.47458H39.253V7.72011H39.4184C39.5808 7.36036 39.8158 6.99481 40.1233 6.62346C40.4367 6.2463 40.8428 5.93297 41.3419 5.68347C41.8467 5.42816 42.4733 5.30051 43.2218 5.30051C44.1966 5.30051 45.096 5.55581 45.92 6.06642C46.7439 6.57123 47.4025 7.33425 47.8957 8.35548C48.3889 9.3709 48.6355 10.6445 48.6355 12.1764C48.6355 13.6676 48.3947 14.9267 47.9131 15.9537C47.4373 16.975 46.7874 17.7496 45.9635 18.2776C45.1453 18.7998 44.2286 19.0609 43.2131 19.0609C42.4936 19.0609 41.8815 18.942 41.3767 18.7041C40.8777 18.4662 40.4686 18.1674 40.1495 17.8076C39.8303 17.4421 39.5866 17.0736 39.4184 16.7022H39.3052V23.8566H35.5975ZM39.2269 12.159C39.2269 12.9539 39.3371 13.6473 39.5576 14.2391C39.7781 14.831 40.0972 15.2923 40.515 15.623C40.9328 15.9479 41.4405 16.1104 42.0381 16.1104C42.6416 16.1104 43.1522 15.945 43.57 15.6143C43.9878 15.2778 44.304 14.8136 44.5187 14.2217C44.7392 13.6241 44.8494 12.9365 44.8494 12.159C44.8494 11.3872 44.7421 10.7084 44.5274 10.1223C44.3127 9.53627 43.9965 9.07788 43.5787 8.74714C43.1609 8.4164 42.6474 8.25103 42.0381 8.25103C41.4347 8.25103 40.9241 8.4106 40.5063 8.72973C40.0943 9.04886 39.7781 9.50145 39.5576 10.0875C39.3371 10.6735 39.2269 11.364 39.2269 12.159Z" fill="#111827"/>
<path d="M50.6171 18.8433V5.47458H54.3249V18.8433H50.6171ZM52.4797 3.75126C51.9285 3.75126 51.4556 3.56849 51.061 3.20293C50.6722 2.83158 50.4779 2.38769 50.4779 1.87128C50.4779 1.36067 50.6722 0.922584 51.061 0.557033C51.4556 0.185678 51.9285 0 52.4797 0C53.0309 0 53.5009 0.185678 53.8897 0.557033C54.2843 0.922584 54.4815 1.36067 54.4815 1.87128C54.4815 2.38769 54.2843 2.83158 53.8897 3.20293C53.5009 3.56849 53.0309 3.75126 52.4797 3.75126Z" fill="#111827"/>
<path d="M56.8744 18.8433V1.01832H60.5822V7.72011H60.6953C60.8578 7.36036 61.0928 6.99481 61.4003 6.62346C61.7136 6.2463 62.1198 5.93297 62.6188 5.68347C63.1236 5.42816 63.7503 5.30051 64.4988 5.30051C65.4736 5.30051 66.373 5.55581 67.1969 6.06642C68.0209 6.57123 68.6794 7.33425 69.1726 8.35548C69.6658 9.3709 69.9124 10.6445 69.9124 12.1764C69.9124 13.6676 69.6716 14.9267 69.19 15.9537C68.7142 16.975 68.0644 17.7496 67.2404 18.2776C66.4223 18.7998 65.5055 19.0609 64.4901 19.0609C63.7706 19.0609 63.1584 18.942 62.6536 18.7041C62.1546 18.4662 61.7455 18.1674 61.4264 17.8076C61.1073 17.4421 60.8636 17.0736 60.6953 16.7022H60.5299V18.8433H56.8744ZM60.5038 12.159C60.5038 12.9539 60.6141 13.6473 60.8346 14.2391C61.0551 14.831 61.3742 15.2923 61.792 15.623C62.2097 15.9479 62.7174 16.1104 63.3151 16.1104C63.9186 16.1104 64.4292 15.945 64.8469 15.6143C65.2647 15.2778 65.5809 14.8136 65.7956 14.2217C66.0161 13.6241 66.1264 12.9365 66.1264 12.159C66.1264 11.3872 66.019 10.7084 65.8043 10.1223C65.5896 9.53627 65.2734 9.07788 64.8556 8.74714C64.4379 8.4164 63.9244 8.25103 63.3151 8.25103C62.7116 8.25103 62.201 8.4106 61.7833 8.72973C61.3713 9.04886 61.0551 9.50145 60.8346 10.0875C60.6141 10.6735 60.5038 11.364 60.5038 12.159Z" fill="#111827"/>
<path d="M75.7084 19.0957C74.8555 19.0957 74.0954 18.9478 73.4281 18.6519C72.7608 18.3501 72.2328 17.9062 71.844 17.3202C71.4611 16.7284 71.2696 15.9915 71.2696 15.1095C71.2696 14.3668 71.406 13.743 71.6787 13.2382C71.9514 12.7334 72.3227 12.3272 72.7927 12.0197C73.2627 11.7122 73.7965 11.4801 74.3942 11.3234C74.9977 11.1667 75.6301 11.0565 76.2916 10.9927C77.0691 10.9114 77.6958 10.836 78.1716 10.7664C78.6474 10.6909 78.9926 10.5807 79.2073 10.4356C79.422 10.2906 79.5293 10.0759 79.5293 9.79157V9.73935C79.5293 9.18812 79.3553 8.76165 79.0071 8.45992C78.6648 8.15819 78.1774 8.00733 77.5449 8.00733C76.8776 8.00733 76.3467 8.15529 75.9521 8.45122C75.5576 8.74134 75.2965 9.10689 75.1688 9.54787L71.7396 9.26936C71.9137 8.45702 72.256 7.75493 72.7666 7.16308C73.2772 6.56543 73.9358 6.10704 74.7423 5.78791C75.5547 5.46297 76.4947 5.30051 77.5623 5.30051C78.305 5.30051 79.0158 5.38754 79.6947 5.56161C80.3794 5.73569 80.9857 6.0055 81.5138 6.37105C82.0476 6.7366 82.4683 7.2066 82.7758 7.78104C83.0833 8.34967 83.2371 9.03146 83.2371 9.82639V18.8433H79.7208V16.9895H79.6164C79.4017 17.4072 79.1145 17.7757 78.7547 18.0948C78.395 18.4082 77.9627 18.6548 77.4579 18.8346C76.9531 19.0087 76.3699 19.0957 75.7084 19.0957ZM76.7703 16.5369C77.3157 16.5369 77.7973 16.4295 78.2151 16.2148C78.6329 15.9944 78.9607 15.6984 79.1986 15.3271C79.4365 14.9557 79.5555 14.535 79.5555 14.0651V12.6464C79.4394 12.7218 79.2798 12.7914 79.0768 12.8552C78.8795 12.9133 78.6561 12.9684 78.4066 13.0206C78.1571 13.067 77.9076 13.1106 77.6581 13.1512C77.4086 13.186 77.1823 13.2179 76.9792 13.2469C76.544 13.3107 76.1639 13.4123 75.839 13.5515C75.5141 13.6908 75.2617 13.8794 75.0818 14.1173C74.9019 14.3494 74.812 14.6395 74.812 14.9876C74.812 15.4924 74.9948 15.8783 75.3603 16.1452C75.7317 16.4063 76.2017 16.5369 76.7703 16.5369Z" fill="#111827"/>
<path d="M85.6234 18.8433V5.47458H89.218V7.80715H89.3573C89.601 6.9774 90.0101 6.35074 90.5845 5.92717C91.1589 5.49779 91.8204 5.2831 92.5689 5.2831C92.7546 5.2831 92.9548 5.2947 93.1695 5.31791C93.3842 5.34112 93.5727 5.37304 93.7352 5.41365V8.70362C93.5611 8.6514 93.3203 8.60498 93.0128 8.56436C92.7053 8.52375 92.4239 8.50344 92.1686 8.50344C91.6231 8.50344 91.1357 8.62239 90.7064 8.86029C90.2828 9.09238 89.9462 9.41732 89.6967 9.83509C89.453 10.2529 89.3312 10.7345 89.3312 11.2799V18.8433H85.6234Z" fill="#111827"/>
<path d="M98.5912 19.0957C97.7383 19.0957 96.9782 18.9478 96.3109 18.6519C95.6436 18.3501 95.1156 17.9062 94.7268 17.3202C94.3439 16.7284 94.1524 15.9915 94.1524 15.1095C94.1524 14.3668 94.2887 13.743 94.5615 13.2382C94.8342 12.7334 95.2055 12.3272 95.6755 12.0197C96.1455 11.7122 96.6793 11.4801 97.277 11.3234C97.8804 11.1667 98.5129 11.0565 99.1744 10.9927C99.9519 10.9114 100.579 10.836 101.054 10.7664C101.53 10.6909 101.875 10.5807 102.09 10.4356C102.305 10.2906 102.412 10.0759 102.412 9.79157V9.73935C102.412 9.18812 102.238 8.76165 101.89 8.45992C101.548 8.15819 101.06 8.00733 100.428 8.00733C99.7604 8.00733 99.2295 8.15529 98.8349 8.45122C98.4404 8.74134 98.1793 9.10689 98.0516 9.54787L94.6224 9.26936C94.7964 8.45702 95.1388 7.75493 95.6494 7.16308C96.16 6.56543 96.8186 6.10704 97.6251 5.78791C98.4375 5.46297 99.3775 5.30051 100.445 5.30051C101.188 5.30051 101.899 5.38754 102.577 5.56161C103.262 5.73569 103.869 6.0055 104.397 6.37105C104.93 6.7366 105.351 7.2066 105.659 7.78104C105.966 8.34967 106.12 9.03146 106.12 9.82639V18.8433H102.604V16.9895H102.499C102.284 17.4072 101.997 17.7757 101.637 18.0948C101.278 18.4082 100.845 18.6548 100.341 18.8346C99.8358 19.0087 99.2527 19.0957 98.5912 19.0957ZM99.6531 16.5369C100.199 16.5369 100.68 16.4295 101.098 16.2148C101.516 15.9944 101.843 15.6984 102.081 15.3271C102.319 14.9557 102.438 14.535 102.438 14.0651V12.6464C102.322 12.7218 102.163 12.7914 101.96 12.8552C101.762 12.9133 101.539 12.9684 101.289 13.0206C101.04 13.067 100.79 13.1106 100.541 13.1512C100.291 13.186 100.065 13.2179 99.862 13.2469C99.4268 13.3107 99.0467 13.4123 98.7218 13.5515C98.3969 13.6908 98.1444 13.8794 97.9646 14.1173C97.7847 14.3494 97.6948 14.6395 97.6948 14.9876C97.6948 15.4924 97.8775 15.8783 98.2431 16.1452C98.6144 16.4063 99.0844 16.5369 99.6531 16.5369Z" fill="#111827"/>
<path d="M108.506 18.8433V5.47458H112.101V7.80715H112.24C112.484 6.9774 112.893 6.35074 113.467 5.92717C114.042 5.49779 114.703 5.2831 115.452 5.2831C115.637 5.2831 115.838 5.2947 116.052 5.31791C116.267 5.34112 116.456 5.37304 116.618 5.41365V8.70362C116.444 8.6514 116.203 8.60498 115.896 8.56436C115.588 8.52375 115.307 8.50344 115.051 8.50344C114.506 8.50344 114.019 8.62239 113.589 8.86029C113.166 9.09238 112.829 9.41732 112.58 9.83509C112.336 10.2529 112.214 10.7345 112.214 11.2799V18.8433H108.506Z" fill="#111827"/>
<path d="M121.474 19.0957C120.621 19.0957 119.861 18.9478 119.194 18.6519C118.526 18.3501 117.998 17.9062 117.61 17.3202C117.227 16.7284 117.035 15.9915 117.035 15.1095C117.035 14.3668 117.172 13.743 117.444 13.2382C117.717 12.7334 118.088 12.3272 118.558 12.0197C119.028 11.7122 119.562 11.4801 120.16 11.3234C120.763 11.1667 121.396 11.0565 122.057 10.9927C122.835 10.9114 123.461 10.836 123.937 10.7664C124.413 10.6909 124.758 10.5807 124.973 10.4356C125.188 10.2906 125.295 10.0759 125.295 9.79157V9.73935C125.295 9.18812 125.121 8.76165 124.773 8.45992C124.43 8.15819 123.943 8.00733 123.31 8.00733C122.643 8.00733 122.112 8.15529 121.718 8.45122C121.323 8.74134 121.062 9.10689 120.934 9.54787L117.505 9.26936C117.679 8.45702 118.022 7.75493 118.532 7.16308C119.043 6.56543 119.701 6.10704 120.508 5.78791C121.32 5.46297 122.26 5.30051 123.328 5.30051C124.071 5.30051 124.781 5.38754 125.46 5.56161C126.145 5.73569 126.751 6.0055 127.279 6.37105C127.813 6.7366 128.234 7.2066 128.541 7.78104C128.849 8.34967 129.003 9.03146 129.003 9.82639V18.8433H125.486V16.9895H125.382C125.167 17.4072 124.88 17.7757 124.52 18.0948C124.161 18.4082 123.728 18.6548 123.223 18.8346C122.719 19.0087 122.135 19.0957 121.474 19.0957ZM122.536 16.5369C123.081 16.5369 123.563 16.4295 123.981 16.2148C124.398 15.9944 124.726 15.6984 124.964 15.3271C125.202 14.9557 125.321 14.535 125.321 14.0651V12.6464C125.205 12.7218 125.045 12.7914 124.842 12.8552C124.645 12.9133 124.422 12.9684 124.172 13.0206C123.923 13.067 123.673 13.1106 123.424 13.1512C123.174 13.186 122.948 13.2179 122.745 13.2469C122.31 13.3107 121.929 13.4123 121.605 13.5515C121.28 13.6908 121.027 13.8794 120.847 14.1173C120.667 14.3494 120.578 14.6395 120.578 14.9876C120.578 15.4924 120.76 15.8783 121.126 16.1452C121.497 16.4063 121.967 16.5369 122.536 16.5369Z" fill="#111827"/>
<path d="M2.08887 35.8804C1.51443 35.8804 1.02122 35.6773 0.609253 35.2711C0.203084 34.8592 0 34.366 0 33.7915C0 33.2229 0.203084 32.7355 0.609253 32.3293C1.02122 31.9231 1.51443 31.7201 2.08887 31.7201C2.6459 31.7201 3.1333 31.9231 3.55108 32.3293C3.96885 32.7355 4.17774 33.2229 4.17774 33.7915C4.17774 34.1745 4.0791 34.5255 3.88181 34.8447C3.69034 35.158 3.43793 35.4104 3.1246 35.6019C2.81127 35.7875 2.46603 35.8804 2.08887 35.8804Z" fill="#111827"/>
<path d="M12.772 35.9152C11.4026 35.9152 10.2247 35.6251 9.23828 35.0448C8.25768 34.4588 7.50336 33.6465 6.97534 32.6078C6.45312 31.5692 6.19202 30.3739 6.19202 29.0219C6.19202 27.6526 6.45603 26.4515 6.98405 25.4186C7.51787 24.38 8.27508 23.5706 9.25569 22.9903C10.2363 22.4043 11.4026 22.1113 12.7545 22.1113C13.9208 22.1113 14.9421 22.323 15.8182 22.7466C16.6944 23.1702 17.3878 23.7649 17.8984 24.5309C18.409 25.2968 18.6904 26.1962 18.7426 27.229H15.2438C15.1451 26.5617 14.884 26.025 14.4605 25.6188C14.0427 25.2068 13.4944 25.0009 12.8155 25.0009C12.241 25.0009 11.7391 25.1575 11.3097 25.4709C10.8862 25.7784 10.5554 26.2281 10.3175 26.8199C10.0796 27.4118 9.96068 28.1284 9.96068 28.9697C9.96068 29.8227 10.0767 30.548 10.3088 31.1456C10.5467 31.7433 10.8804 32.1988 11.3097 32.5121C11.7391 32.8254 12.241 32.9821 12.8155 32.9821C13.239 32.9821 13.6191 32.895 13.9556 32.721C14.298 32.5469 14.5794 32.2945 14.7999 31.9638C15.0262 31.6272 15.1742 31.224 15.2438 30.754H18.7426C18.6846 31.7752 18.4061 32.6746 17.9071 33.4521C17.4139 34.2238 16.7321 34.8273 15.8617 35.2624C14.9914 35.6976 13.9614 35.9152 12.772 35.9152Z" fill="#111827"/>
<path d="M35.5911 35.6541V22.2853H39.3234V24.644H39.6375C39.916 23.8607 40.3802 23.2427 41.03 22.7901C41.6799 22.3376 42.4574 22.1113 43.3626 22.1113C44.2794 22.1113 45.0598 22.3405 45.7039 22.7988C46.3479 23.2514 46.7773 23.8665 46.992 24.644H47.1313C47.404 23.8781 47.8972 23.2659 48.6109 22.8075C49.3304 22.3434 50.1804 22.1113 51.161 22.1113C52.4086 22.1113 53.4211 22.5087 54.1986 23.3037C54.9819 24.0928 55.3736 25.2127 55.3736 26.6633V35.6541H51.6746V27.3944C51.6746 26.6516 51.4773 26.0946 51.0827 25.7233C50.6881 25.3519 50.1949 25.1662 49.6031 25.1662C48.93 25.1662 48.4049 25.3809 48.0277 25.8103C47.6506 26.2339 47.462 26.7938 47.462 27.4901V35.6541H43.8674V27.316C43.8674 26.6604 43.6788 26.1381 43.3017 25.7494C42.9303 25.3606 42.44 25.1662 41.8308 25.1662C41.4188 25.1662 41.0474 25.2707 40.7167 25.4796C40.3918 25.6826 40.1336 25.9699 39.9421 26.3412C39.7506 26.7068 39.6549 27.1362 39.6549 27.6294V35.6541H35.5911Z" fill="#111827"/>
<path d="M20.0904 28.8521C20.0904 24.9048 23.2904 21.7043 27.2378 21.7043C31.1856 21.7043 34.3856 24.9044 34.3856 28.8521C34.3856 32.7999 31.1856 36 27.2378 36C23.2904 36 20.0904 32.7999 20.0904 28.8521Z" fill="#F4900C"/>
<path d="M23.7351 23.6905C23.6194 23.5748 23.3898 23.6052 23.1481 23.7425C21.7185 22.559 19.3996 22.1604 19.2947 22.1431C19.0582 22.1045 18.836 22.2631 18.7965 22.4988C18.7571 22.7344 18.9161 22.958 19.1522 22.9974C19.1752 23.0013 21.2896 23.3673 22.5403 24.3663C22.4212 24.5937 22.3999 24.806 22.51 24.9156C22.6789 25.085 23.0905 24.9477 23.4288 24.6093C23.7671 24.2714 23.904 23.8599 23.7351 23.6905Z" fill="#662113"/>
<path d="M27.8876 20.8378C27.8876 20.8378 26.542 22.7084 24.846 23.1221C23.5555 23.437 21.8405 23.4673 21.6694 23.0688C21.4987 22.6707 22.3504 21.3633 23.822 20.7325C25.2935 20.1022 27.8876 20.8378 27.8876 20.8378Z" fill="#5C913B"/>
</g>
</g>
</svg>
