<svg width="33" height="32" viewBox="0 0 33 32" fill="none" xmlns="http://www.w3.org/2000/svg">
<path d="M26.42 17.3334C26.1267 17.3334 25.82 17.24 25.5267 17.1734C24.9326 17.0425 24.3489 16.8687 23.78 16.6534C23.1614 16.4283 22.4815 16.44 21.8711 16.6862C21.2606 16.9323 20.7628 17.3955 20.4733 17.9867L20.18 18.5867C18.8813 17.8643 17.688 16.967 16.6333 15.92C15.5864 14.8654 14.6891 13.672 13.9667 12.3734L14.5267 12C15.1178 11.7106 15.581 11.2127 15.8272 10.6023C16.0733 9.99183 16.085 9.31191 15.86 8.69336C15.6483 8.12326 15.4746 7.53976 15.34 6.94669C15.2733 6.65336 15.22 6.34669 15.18 6.04003C15.0181 5.10085 14.5262 4.25035 13.7928 3.64168C13.0595 3.03301 12.1329 2.70617 11.18 2.72003H7.18C6.60537 2.71463 6.03633 2.83311 5.51161 3.0674C4.98689 3.30169 4.51881 3.64629 4.13924 4.07774C3.75966 4.50918 3.47751 5.01735 3.31198 5.56765C3.14645 6.11794 3.10144 6.69744 3.18 7.26669C3.89031 12.8525 6.44137 18.0425 10.4302 22.0169C14.419 25.9912 19.6183 28.5234 25.2067 29.2134H25.7133C26.6966 29.2148 27.6459 28.8541 28.38 28.2C28.8018 27.8228 29.1388 27.3603 29.3686 26.8431C29.5985 26.326 29.716 25.7659 29.7133 25.2V21.2C29.697 20.2739 29.3597 19.3821 28.7591 18.6769C28.1585 17.9717 27.3318 17.4969 26.42 17.3334ZM27.0867 25.3334C27.0864 25.5227 27.0459 25.7098 26.9677 25.8822C26.8895 26.0546 26.7756 26.2084 26.6333 26.3334C26.4843 26.462 26.3101 26.5581 26.1219 26.6155C25.9336 26.6729 25.7354 26.6903 25.54 26.6667C20.5465 26.0264 15.9083 23.742 12.357 20.1737C8.80559 16.6055 6.54321 11.9565 5.92666 6.96003C5.90544 6.76472 5.92404 6.56713 5.98133 6.37922C6.03863 6.1913 6.13342 6.01694 6.26 5.86669C6.38494 5.72447 6.53875 5.61048 6.71117 5.53232C6.88359 5.45415 7.07068 5.4136 7.26 5.41336H11.26C11.5701 5.40646 11.8728 5.50787 12.1162 5.70012C12.3595 5.89238 12.5283 6.16345 12.5933 6.46669C12.6467 6.83114 12.7133 7.19114 12.7933 7.54669C12.9474 8.24955 13.1523 8.94027 13.4067 9.61336L11.54 10.48C11.3804 10.5533 11.2368 10.6573 11.1175 10.7862C10.9983 10.915 10.9056 11.0662 10.8449 11.231C10.7842 11.3957 10.7566 11.5709 10.7638 11.7463C10.771 11.9218 10.8127 12.0941 10.8867 12.2534C12.8056 16.3637 16.1097 19.6678 20.22 21.5867C20.5446 21.7201 20.9087 21.7201 21.2333 21.5867C21.3996 21.5272 21.5524 21.4353 21.6829 21.3163C21.8134 21.1973 21.9189 21.0535 21.9933 20.8934L22.82 19.0267C23.5093 19.2732 24.2128 19.478 24.9267 19.64C25.2822 19.72 25.6422 19.7867 26.0067 19.84C26.3099 19.9051 26.581 20.0738 26.7732 20.3172C26.9655 20.5605 27.0669 20.8633 27.06 21.1734L27.0867 25.3334Z" fill="#4B5563"/>
</svg>
