<svg width="1440" height="83" viewBox="0 0 1440 83" fill="none" xmlns="http://www.w3.org/2000/svg">
<path fill-rule="evenodd" clip-rule="evenodd" d="M0 1.38625L34.8 5.92035C68.4 10.4544 136.8 19.5226 205.2 24.0567C274.8 28.5908 343.2 28.5908 411.6 22.5454C480 16.4999 548.4 4.40898 616.8 1.38625C685.2 -1.63648 741 14.0279 809.4 15.5393C877.8 17.0506 960 4.40898 1028.4 10.4544C1096.8 16.4999 1165.2 31.6136 1234.8 31.6136C1303.2 31.6136 1371.6 16.4999 1405.2 8.94308L1440 1.38625V83H1405.2C1371.6 83 1303.2 83 1234.8 83C1165.2 83 1096.8 83 1028.4 83C960 83 891.6 83 823.2 83C754.8 83 685.2 83 616.8 83C548.4 83 480 83 411.6 83C343.2 83 274.8 83 205.2 83C136.8 83 68.4 83 34.8 83H0V1.38625Z" fill="#0099FF"/>
<path d="M326.403 64.3421C332.461 50.5971 326.307 34.5075 312.657 28.4077C299.005 22.3071 283.028 28.505 276.969 42.2515C270.911 55.998 277.066 72.086 290.718 78.1865C304.368 84.2864 320.345 78.0886 326.403 64.3421Z" fill="#F4900C"/>
<path d="M321.72 40.7362C322.298 40.5122 323.045 40.9726 323.67 41.8243C330.43 39.9124 339.061 42.1081 339.45 42.2097C340.327 42.441 340.852 43.3365 340.627 44.218C340.402 45.0995 339.509 45.6322 338.632 45.4046C338.546 45.3827 330.673 43.3899 324.815 44.9357C324.878 45.9117 324.625 46.6837 324.077 46.8953C323.232 47.224 322.02 46.1099 321.369 44.409C320.718 42.7095 320.876 41.065 321.72 40.7362Z" fill="#662113"/>
<path d="M311.737 24.3863C311.737 24.3863 313.52 32.979 318.75 37.0404C322.729 40.1313 328.613 42.8872 329.817 41.7638C331.018 40.6413 330.079 34.7727 325.958 30.3024C321.837 25.8335 311.737 24.3863 311.737 24.3863Z" fill="#5C913B"/>
<path d="M267.861 36.616C261.65 26.9726 248.849 24.2247 239.272 30.4796C229.694 36.7353 226.966 49.6239 233.179 59.2683C239.391 68.9127 252.191 71.6596 261.769 65.404C271.346 59.149 274.074 46.2604 267.861 36.616Z" fill="#F4900C"/>
<path d="M250.895 29.7818C250.994 29.316 251.599 29.0262 252.401 28.9787C254.007 23.8221 259.006 19.1738 259.233 18.9654C259.746 18.4964 260.535 18.5316 261.002 19.0448C261.468 19.5581 261.434 20.3561 260.923 20.8265C260.874 20.8724 256.32 25.1173 254.858 29.5396C255.505 29.9064 255.89 30.3913 255.796 30.8335C255.652 31.515 254.438 31.8316 253.084 31.5412C251.732 31.2518 250.752 30.4634 250.895 29.7818Z" fill="#662113"/>
<path d="M236.331 29.3933C236.331 29.3933 242.539 31.831 247.305 30.1542C250.932 28.8786 255.14 26.235 254.928 24.9903C254.716 23.7472 250.592 21.9028 246.029 22.6938C241.467 23.4858 236.331 29.3933 236.331 29.3933Z" fill="#5C913B"/>
<path fill-rule="evenodd" clip-rule="evenodd" d="M0 28.2591L34.8 31.3002C68.4 34.3414 136.8 40.4237 205.2 43.4649C274.8 46.506 281.6 60.5549 350 56.5C418.4 52.4451 470.1 30.2865 538.5 28.2591C606.9 26.2316 725.6 55.4863 794 56.5C862.4 57.5137 1024.1 29.2728 1092.5 33.3277C1160.9 37.3826 1239.4 56.5 1309 56.5C1377.4 56.5 1406.4 27.0686 1440 22L1546 33.3277L1440 83H1405.2C1371.6 83 1303.2 83 1234.8 83C1165.2 83 1096.8 83 1028.4 83C960 83 891.6 83 823.2 83C754.8 83 685.2 83 616.8 83C548.4 83 480 83 411.6 83C343.2 83 274.8 83 205.2 83C136.8 83 68.4 83 34.8 83H0V28.2591Z" fill="#0090EF"/>
</svg>
