<svg width="103" height="46" viewBox="0 0 103 46" fill="none" xmlns="http://www.w3.org/2000/svg">
<path d="M60.9919 16.8987C63.6097 16.8987 65.732 14.7887 65.732 12.1859C65.732 9.58313 63.6097 7.47314 60.9919 7.47314C58.3739 7.47314 56.2516 9.58313 56.2516 12.1859C56.2516 14.7887 58.3739 16.8987 60.9919 16.8987Z" fill="#1F2937"/>
<path d="M75.264 39.1306V21.1503H80.0558V16.8987H75.264V7.47314H74.3366L70.5754 12.6982V21.2528H63.3105H62.3831L58.6217 26.4778V39.1818H63.2589V25.4533H70.5238V39.1306C70.5238 43.3823 73.1 45.7387 77.8402 45.7387L80.5194 42.1529L77.0674 41.4357C75.9853 41.1796 75.264 40.3599 75.264 39.1306Z" fill="#1F2937"/>
<path d="M44.3495 16.4372C41.2581 16.4372 39.8669 18.0764 38.888 19.0497L38.6304 18.7936V0.19873H37.7544L33.8901 5.52618V38.9998H36.2603H38.6304V23.5063C39.7123 22.277 40.7944 21.3549 42.34 20.8938C42.6492 20.7914 43.0099 20.7401 43.3705 20.6889C43.5252 20.6889 43.6797 20.6377 43.8857 20.6377C47.0288 20.6377 48.5229 22.3282 48.626 25.3504V39.079H49.4503L53.3661 33.649V25.4017C53.4177 20.228 50.0687 16.4372 44.3495 16.4372Z" fill="#1F2937"/>
<path d="M8.69485 30.6781L4.83056 16.8984H0.141872L6.32475 39.1304H11.0134L15.3415 23.609H10.6528L8.69485 30.6781Z" fill="#1F2937"/>
<path d="M22.0396 30.6781L20.0817 23.609H15.3414L19.6694 39.1304H24.4096L30.5926 16.8984H25.8523L22.0396 30.6781Z" fill="#1F2937"/>
<path d="M102.726 24.0701C101.335 19.3574 97.3676 16.4375 92.782 16.4375C86.5991 16.4375 81.8589 21.1502 81.8589 28.0145C81.8589 34.8787 86.8568 39.5914 92.782 39.5914C97.3162 39.5914 100.614 37.235 102.52 33.9055L98.5012 32.01C97.7798 33.9055 95.8219 35.3397 92.9881 35.3397C88.9692 35.3397 86.5475 32.5223 86.5475 29.1927H98.965L102.726 24.0701ZM86.8568 25.0433C87.578 22.5845 89.4844 20.6892 92.782 20.6892C95.6159 20.6892 98.0374 22.5845 98.2436 25.0433H86.8568Z" fill="#1F2937"/>
</svg>
