<svg width="27" height="22" viewBox="0 0 27 22" fill="none" xmlns="http://www.w3.org/2000/svg">
<path d="M22.8334 0.333252H4.16675C3.10588 0.333252 2.08847 0.754679 1.33832 1.50482C0.588176 2.25497 0.166748 3.27239 0.166748 4.33325V17.6666C0.166748 18.7274 0.588176 19.7449 1.33832 20.495C2.08847 21.2452 3.10588 21.6666 4.16675 21.6666H22.8334C23.8943 21.6666 24.9117 21.2452 25.6618 20.495C26.412 19.7449 26.8334 18.7274 26.8334 17.6666V4.33325C26.8334 3.27239 26.412 2.25497 25.6618 1.50482C24.9117 0.754679 23.8943 0.333252 22.8334 0.333252ZM22.2867 2.99992L14.4467 10.8399C14.3228 10.9649 14.1753 11.0641 14.0129 11.1318C13.8504 11.1995 13.6761 11.2343 13.5001 11.2343C13.3241 11.2343 13.1498 11.1995 12.9873 11.1318C12.8248 11.0641 12.6774 10.9649 12.5534 10.8399L4.71341 2.99992H22.2867ZM24.1667 17.6666C24.1667 18.0202 24.0263 18.3593 23.7762 18.6094C23.5262 18.8594 23.187 18.9999 22.8334 18.9999H4.16675C3.81313 18.9999 3.47399 18.8594 3.22394 18.6094C2.97389 18.3593 2.83341 18.0202 2.83341 17.6666V4.87992L10.6734 12.7199C11.4234 13.469 12.4401 13.8897 13.5001 13.8897C14.5601 13.8897 15.5767 13.469 16.3267 12.7199L24.1667 4.87992V17.6666Z" fill="#FFD600"/>
</svg>
