<svg width="36" height="36" viewBox="0 0 36 36" fill="none" xmlns="http://www.w3.org/2000/svg">
<rect width="36" height="36" rx="8" fill="#F6A63D"/>
<path d="M24 16.82C23.7348 16.82 23.4804 16.9254 23.2929 17.1129C23.1054 17.3004 23 17.5548 23 17.82V25C23 25.2652 22.8946 25.5196 22.7071 25.7071C22.5196 25.8946 22.2652 26 22 26H11C10.7348 26 10.4804 25.8946 10.2929 25.7071C10.1054 25.5196 10 25.2652 10 25V14C10 13.7348 10.1054 13.4804 10.2929 13.2929C10.4804 13.1054 10.7348 13 11 13H18.18C18.4452 13 18.6996 12.8946 18.8871 12.7071C19.0746 12.5196 19.18 12.2652 19.18 12C19.18 11.7348 19.0746 11.4804 18.8871 11.2929C18.6996 11.1054 18.4452 11 18.18 11H11C10.2044 11 9.44129 11.3161 8.87868 11.8787C8.31607 12.4413 8 13.2044 8 14V25C8 25.7956 8.31607 26.5587 8.87868 27.1213C9.44129 27.6839 10.2044 28 11 28H22C22.7956 28 23.5587 27.6839 24.1213 27.1213C24.6839 26.5587 25 25.7956 25 25V17.82C25 17.5548 24.8946 17.3004 24.7071 17.1129C24.5196 16.9254 24.2652 16.82 24 16.82ZM27.92 8.62C27.8185 8.37565 27.6243 8.18147 27.38 8.08C27.2598 8.02876 27.1307 8.00158 27 8H21C20.7348 8 20.4804 8.10536 20.2929 8.29289C20.1054 8.48043 20 8.73478 20 9C20 9.26522 20.1054 9.51957 20.2929 9.70711C20.4804 9.89464 20.7348 10 21 10H24.59L14.29 20.29C14.1963 20.383 14.1219 20.4936 14.0711 20.6154C14.0203 20.7373 13.9942 20.868 13.9942 21C13.9942 21.132 14.0203 21.2627 14.0711 21.3846C14.1219 21.5064 14.1963 21.617 14.29 21.71C14.383 21.8037 14.4936 21.8781 14.6154 21.9289C14.7373 21.9797 14.868 22.0058 15 22.0058C15.132 22.0058 15.2627 21.9797 15.3846 21.9289C15.5064 21.8781 15.617 21.8037 15.71 21.71L26 11.41V15C26 15.2652 26.1054 15.5196 26.2929 15.7071C26.4804 15.8946 26.7348 16 27 16C27.2652 16 27.5196 15.8946 27.7071 15.7071C27.8946 15.5196 28 15.2652 28 15V9C27.9984 8.86932 27.9712 8.74022 27.92 8.62Z" fill="#F9FAFB"/>
</svg>
