<svg width="27" height="28" viewBox="0 0 27 28" fill="none" xmlns="http://www.w3.org/2000/svg">
<path d="M23.4199 15.3332C23.1266 15.3332 22.8199 15.2399 22.5266 15.1732C21.9325 15.0423 21.3488 14.8686 20.7799 14.6532C20.1613 14.4282 19.4814 14.4399 18.871 14.686C18.2605 14.9322 17.7627 15.3954 17.4732 15.9866L17.1799 16.5866C15.8812 15.8641 14.6879 14.9669 13.6332 13.9199C12.5862 12.8653 11.689 11.6719 10.9666 10.3732L11.5266 9.99991C12.1177 9.71046 12.5809 9.21261 12.8271 8.60216C13.0732 7.99171 13.0849 7.31179 12.8599 6.69324C12.6482 6.12314 12.4745 5.53964 12.3399 4.94657C12.2732 4.65324 12.2199 4.34657 12.1799 4.03991C12.018 3.10073 11.5261 2.25023 10.7927 1.64156C10.0594 1.03289 9.13282 0.706051 8.17989 0.719905H4.17989C3.60527 0.71451 3.03622 0.83299 2.5115 1.06728C1.98678 1.30157 1.5187 1.64617 1.13913 2.07761C0.759558 2.50906 0.477403 3.01723 0.311874 3.56752C0.146346 4.11782 0.101329 4.69732 0.17989 5.26657C0.890208 10.8524 3.44126 16.0424 7.43009 20.0168C11.4189 23.9911 16.6182 26.5233 22.2066 27.2132H22.7132C23.6964 27.2147 24.6458 26.8539 25.3799 26.1999C25.8017 25.8226 26.1387 25.3601 26.3685 24.843C26.5984 24.3259 26.7158 23.7658 26.7132 23.1999V19.1999C26.6969 18.2738 26.3596 17.382 25.759 16.6768C25.1584 15.9716 24.3316 15.4967 23.4199 15.3332ZM24.0866 23.3332C24.0863 23.5226 24.0458 23.7096 23.9676 23.8821C23.8894 24.0545 23.7754 24.2083 23.6332 24.3332C23.4842 24.4619 23.31 24.558 23.1218 24.6154C22.9335 24.6728 22.7353 24.6902 22.5399 24.6666C17.5464 24.0263 12.9082 21.7419 9.35685 18.1736C5.80549 14.6054 3.5431 9.95636 2.92656 4.95991C2.90534 4.7646 2.92393 4.56701 2.98123 4.37909C3.03852 4.19117 3.13332 4.01682 3.25989 3.86657C3.38484 3.72435 3.53864 3.61036 3.71106 3.5322C3.88349 3.45403 4.07058 3.41348 4.25989 3.41324H8.25989C8.56995 3.40634 8.87272 3.50775 9.11608 3.7C9.35944 3.89225 9.52817 4.16333 9.59322 4.46657C9.64656 4.83102 9.71322 5.19102 9.79322 5.54657C9.94725 6.24943 10.1522 6.94015 10.4066 7.61324L8.53989 8.47991C8.38029 8.55313 8.23672 8.65717 8.11743 8.78603C7.99815 8.9149 7.90549 9.06606 7.84479 9.23083C7.78408 9.39561 7.75652 9.57075 7.76369 9.7462C7.77086 9.92166 7.81261 10.094 7.88656 10.2532C9.80549 14.3636 13.1096 17.6676 17.2199 19.5866C17.5445 19.7199 17.9086 19.7199 18.2332 19.5866C18.3995 19.5271 18.5523 19.4352 18.6828 19.3162C18.8133 19.1971 18.9188 19.0534 18.9932 18.8932L19.8199 17.0266C20.5092 17.2731 21.2127 17.4779 21.9266 17.6399C22.2821 17.7199 22.6421 17.7866 23.0066 17.8399C23.3098 17.905 23.5809 18.0737 23.7731 18.317C23.9654 18.5604 24.0668 18.8632 24.0599 19.1732L24.0866 23.3332Z" fill="#FFD600"/>
</svg>
