<svg width="124" height="79" viewBox="0 0 124 79" fill="none" xmlns="http://www.w3.org/2000/svg">
<path d="M106.586 51.1892C112.644 37.4442 106.49 21.3547 92.8396 15.2548C79.1879 9.15431 63.2109 15.3521 57.1524 29.0986C51.0939 42.8451 57.249 58.9332 70.9007 65.0337C84.5509 71.1336 100.528 64.9357 106.586 51.1892Z" fill="#F4900C"/>
<path d="M101.903 27.5834C102.481 27.3594 103.228 27.8198 103.853 28.6715C110.613 26.7595 119.244 28.9552 119.633 29.0569C120.51 29.2882 121.035 30.1837 120.81 31.0652C120.585 31.9467 119.692 32.4794 118.815 32.2518C118.729 32.2299 110.856 30.2371 104.998 31.7829C105.061 32.7589 104.808 33.5309 104.26 33.7425C103.415 34.0712 102.203 32.957 101.552 31.2561C100.901 29.5567 101.059 27.9121 101.903 27.5834Z" fill="#662113"/>
<path d="M91.9205 11.2335C91.9205 11.2335 93.7028 19.8262 98.9327 23.8876C102.912 26.9785 108.796 29.7344 110 28.611C111.201 27.4885 110.262 21.6199 106.141 17.1495C102.02 12.6807 91.9205 11.2335 91.9205 11.2335Z" fill="#5C913B"/>
<path d="M48.0444 23.4631C41.8326 13.8198 29.0322 11.0718 19.4553 17.3268C9.87744 23.5825 7.14947 36.4711 13.362 46.1155C19.5745 55.7599 32.3742 58.5068 41.9521 52.2511C51.529 45.9961 54.2569 33.1075 48.0444 23.4631Z" fill="#F4900C"/>
<path d="M31.0784 16.629C31.177 16.1632 31.7818 15.8734 32.5844 15.8259C34.1903 10.6692 39.1892 6.021 39.4162 5.81255C39.9294 5.34355 40.7181 5.37874 41.1846 5.892C41.6511 6.40525 41.6171 7.20327 41.1064 7.6737C41.0568 7.7196 36.5029 11.9645 35.0406 16.3867C35.6876 16.7536 36.0731 17.2385 35.9786 17.6806C35.8353 18.3621 34.6207 18.6788 33.2674 18.3884C31.9149 18.099 30.9351 17.3105 31.0784 16.629Z" fill="#662113"/>
<path d="M16.5143 16.2405C16.5143 16.2405 22.7224 18.6781 27.4882 17.0014C31.1148 15.7258 35.3235 13.0822 35.1114 11.8374C34.899 10.5944 30.7753 8.74995 26.2124 9.54093C21.6502 10.333 16.5143 16.2405 16.5143 16.2405Z" fill="#5C913B"/>
</svg>
