<svg width="1440" height="83" viewBox="0 0 1440 83" fill="none" xmlns="http://www.w3.org/2000/svg">
<g clip-path="url(#clip0_152_589)">
<path fill-rule="evenodd" clip-rule="evenodd" d="M0 28.2591L34.8 31.3002C68.4 34.3414 136.8 40.4237 205.2 43.4649C274.8 46.506 281.6 60.5549 350 56.5C418.4 52.4451 470.1 30.2865 538.5 28.2591C606.9 26.2316 725.6 55.4863 794 56.5C862.4 57.5137 1024.1 29.2728 1092.5 33.3277C1160.9 37.3826 1239.4 56.5 1309 56.5C1377.4 56.5 1406.4 27.0686 1440 22L1546 33.3277L1440 83H1405.2C1371.6 83 1303.2 83 1234.8 83C1165.2 83 1096.8 83 1028.4 83C960 83 891.6 83 823.2 83C754.8 83 685.2 83 616.8 83C548.4 83 480 83 411.6 83C343.2 83 274.8 83 205.2 83C136.8 83 68.4 83 34.8 83H0V28.2591Z" fill="#0090EF"/>
</g>
<defs>
<clipPath id="clip0_152_589">
<rect width="1440" height="82.5695" fill="white"/>
</clipPath>
</defs>
</svg>
