<svg width="1440" height="83" viewBox="0 0 1440 83" fill="none" xmlns="http://www.w3.org/2000/svg">
<g clip-path="url(#clip0_152_578)">
<path fill-rule="evenodd" clip-rule="evenodd" d="M0 1.38625L34.8 5.92035C68.4 10.4544 136.8 19.5226 205.2 24.0567C274.8 28.5908 343.2 28.5908 411.6 22.5454C480 16.4999 548.4 4.40898 616.8 1.38625C685.2 -1.63648 741 14.0279 809.4 15.5393C877.8 17.0506 960 4.40898 1028.4 10.4544C1096.8 16.4999 1165.2 31.6136 1234.8 31.6136C1303.2 31.6136 1371.6 16.4999 1405.2 8.94308L1440 1.38625V83H1405.2C1371.6 83 1303.2 83 1234.8 83C1165.2 83 1096.8 83 1028.4 83C960 83 891.6 83 823.2 83C754.8 83 685.2 83 616.8 83C548.4 83 480 83 411.6 83C343.2 83 274.8 83 205.2 83C136.8 83 68.4 83 34.8 83H0V1.38625Z" fill="#0099FF"/>
</g>
<defs>
<clipPath id="clip0_152_578">
<rect width="1440" height="82.5695" fill="white"/>
</clipPath>
</defs>
</svg>
